HIERARCHY
ROOT joint_0
{
	OFFSET 3.952459 0.000000 2.427596
	CHANNELS 6 Xposition Yposition Zposition Yrotation Xrotation Zrotation 
	JOINT joint_1
	{
		OFFSET -0.697764 95.894905 -0.542176
		CHANNELS 3 Yrotation Xrotation Zrotation
		JOINT joint_2
		{
			OFFSET -0.000000 9.717225 -1.180208
			CHANNELS 3 Yrotation Xrotation Zrotation
			JOINT joint_3
			{
				OFFSET -0.000000 11.336825 -1.376934
				CHANNELS 3 Yrotation Xrotation Zrotation
				JOINT joint_4
				{
					OFFSET -0.000000 12.956345 -1.573654
					CHANNELS 3 Yrotation Xrotation Zrotation
					JOINT joint_5
					{
						OFFSET -0.000000 14.575974 -1.770440
						CHANNELS 3 Yrotation Xrotation Zrotation
						JOINT joint_6
						{
							OFFSET -0.000000 6.720198 1.972157
							CHANNELS 3 Yrotation Xrotation Zrotation
							End Site
							{
								OFFSET 0.000000 0.000000 0.000000
							}
						}
					}
					JOINT joint_7
					{
						OFFSET 6.140119 12.877849 -1.790937
						CHANNELS 3 Yrotation Xrotation Zrotation
						JOINT joint_8
						{
							OFFSET 12.545027 -3.431417 -0.038760
							CHANNELS 3 Yrotation Xrotation Zrotation
							JOINT joint_9
							{
								OFFSET 25.447289 -1.876389 -1.528865
								CHANNELS 3 Yrotation Xrotation Zrotation
								JOINT joint_10
								{
									OFFSET 23.367495 0.877640 0.962825
									CHANNELS 3 Yrotation Xrotation Zrotation
									End Site
									{
										OFFSET 0.000000 0.000000 0.000000
									}
								}
							}
						}
					}
					JOINT joint_11
					{
						OFFSET -6.140131 12.877828 -1.749914
						CHANNELS 3 Yrotation Xrotation Zrotation
						JOINT joint_12
						{
							OFFSET -12.545005 -3.431376 0.041026
							CHANNELS 3 Yrotation Xrotation Zrotation
							JOINT joint_13
							{
								OFFSET -25.447325 -1.876449 -1.640970
								CHANNELS 3 Yrotation Xrotation Zrotation
								JOINT joint_14
								{
									OFFSET -23.367445 0.877640 0.922386
									CHANNELS 3 Yrotation Xrotation Zrotation
									End Site
									{
										OFFSET 0.000000 0.000000 0.000000
									}
								}
							}
						}
					}
				}
			}
		}
		JOINT joint_15
		{
			OFFSET 8.078197 -5.402378 -0.574917
			CHANNELS 3 Yrotation Xrotation Zrotation
			JOINT joint_16
			{
				OFFSET 3.743073 -42.540516 -2.655263
				CHANNELS 3 Yrotation Xrotation Zrotation
				JOINT joint_17
				{
					OFFSET 3.359007 -41.940838 -2.898166
					CHANNELS 3 Yrotation Xrotation Zrotation
					JOINT joint_18
					{
						OFFSET 1.133375 -9.116495 13.336108
						CHANNELS 3 Yrotation Xrotation Zrotation
						End Site
						{
							OFFSET 0.000000 0.000000 0.000000
						}
					}
				}
			}
		}
		JOINT joint_19
		{
			OFFSET -8.078201 -5.402399 -0.712443
			CHANNELS 3 Yrotation Xrotation Zrotation
			JOINT joint_20
			{
				OFFSET -3.743070 -42.540485 -2.500303
				CHANNELS 3 Yrotation Xrotation Zrotation
				JOINT joint_21
				{
					OFFSET -3.359003 -41.940788 -2.955719
					CHANNELS 3 Yrotation Xrotation Zrotation
					JOINT joint_22
					{
						OFFSET -1.133401 -9.116735 13.400520
						CHANNELS 3 Yrotation Xrotation Zrotation
						End Site
						{
							OFFSET 0.000000 0.000000 0.000000
						}
					}
				}
			}
		}
	}
}
MOTION
Frames: 7
Frame Time: 0.016667
23.987888 0.000000 -160.838867 164.947128 0.000000 0.000000 -4.515816 5.010416 -3.463563 -0.887529 4.163864 1.026044 -1.558942 8.146855 1.952828 -1.545993 8.141448 1.914646 7.388497 -23.103966 0.439817 9.062127 6.427116 -7.031279 -2.856096 -0.439988 -13.151959 -17.912893 11.121443 -54.152157 -99.011635 -3.068802 -5.481312 -2.942641 29.406185 -0.043808 1.725668 -0.433999 19.696589 1.481268 9.448237 47.520084 87.325684 -4.779412 9.572832 1.549335 18.025076 -8.359729 13.776015 -8.076383 4.666559 42.987240 86.018227 48.283035 -0.688019 6.632753 0.097384 0.000087 -0.002185 -0.004457 -19.834841 -35.002373 25.202713 -6.362745 49.879921 -14.355242 1.572688 -19.808790 -5.503843 -0.000318 -0.002777 0.006266 
25.561745 0.000000 -168.309860 165.269028 0.000000 0.000000 -7.904531 5.827075 -1.591591 0.114288 3.690519 1.091471 0.311462 7.240737 2.077880 0.249540 7.200073 2.061139 10.316097 -22.537695 -8.931466 1.804363 6.739476 0.275303 -0.001846 -0.477583 -13.741824 -15.822309 10.191324 -50.575867 -104.288086 -2.143986 -4.112365 -0.615009 32.505070 -4.223544 5.639853 -0.809796 20.339289 4.732969 -1.849924 48.587273 89.103447 -5.566828 11.353463 4.400010 18.578703 -11.807387 9.908312 -28.526196 3.766283 137.841354 82.442688 142.947769 0.009205 -2.001746 2.641312 -0.000032 -0.002084 -0.003861 -15.130095 -25.521250 20.568453 -7.896584 48.934326 -17.111839 1.027703 -24.921404 -4.154967 -0.000431 -0.002854 0.007385 
27.696709 0.000000 -175.767212 165.464325 0.000000 0.000000 -7.855973 6.251515 -1.115888 0.561485 3.433275 0.983022 1.182681 6.729181 1.944800 1.124961 6.684481 1.971318 9.369413 -22.514233 -8.428518 1.161161 7.366729 0.192116 0.969597 -0.391497 -13.950151 -13.196931 13.946928 -50.633331 -104.283966 -2.139494 -4.167556 0.186057 30.051489 -4.461698 6.272405 -0.820702 19.534632 6.294087 -3.696465 49.582306 92.196808 -5.731561 11.623160 5.480236 18.347921 -11.704169 9.111392 -37.029854 2.080472 122.647514 81.571480 128.136078 1.270845 -4.237831 2.518644 -0.000035 -0.002072 -0.003894 -13.693157 -19.705620 18.490473 -6.751235 45.873577 -16.329781 0.455504 -26.521116 -3.036061 -0.000434 -0.002885 0.007207 
29.838757 0.000000 -183.246536 165.682755 0.000000 0.000000 -7.389055 6.476571 -0.810274 1.021601 3.132135 0.895779 2.065964 6.164886 1.839272 1.983004 6.117271 1.902630 8.164864 -22.032631 -7.805230 0.431047 8.038159 0.082125 1.647411 -0.346336 -13.729644 -11.245836 18.419348 -50.397827 -105.194832 -2.146284 -4.235936 0.740316 26.653915 -4.074230 6.517859 -0.743530 18.467529 7.439922 -4.534619 50.296181 95.683952 -6.072961 12.092474 6.798412 17.873577 -12.055215 8.821700 -44.527760 0.035907 96.465393 81.722404 101.874962 2.417777 -5.365961 1.538162 -0.000043 -0.002023 -0.003919 -13.152280 -13.533202 16.412447 -4.937469 42.349373 -14.790252 0.172713 -26.587820 -1.757649 -0.000444 -0.002964 0.007101 
31.980642 0.000000 -190.760040 165.934921 0.000000 0.000000 -6.740818 6.299266 -0.619624 1.549994 2.872074 0.802681 3.060042 5.691486 1.692456 2.954396 5.651084 1.757571 6.706020 -21.237568 -7.478923 -0.869483 8.609468 0.580742 2.118740 -0.348248 -13.301793 -9.553410 22.853579 -49.767609 -106.766289 -2.214365 -4.491990 0.740221 22.685097 -2.776539 6.502239 -0.598259 17.334482 8.172261 -4.331111 50.826771 99.029625 -6.418984 12.452461 7.613910 17.189085 -12.545362 9.578423 -49.117432 -2.166973 60.052422 79.319420 65.157341 3.468941 -5.725987 -0.192797 -0.000042 -0.002029 -0.003929 -13.005430 -7.131822 14.273138 -3.246856 38.705330 -13.441630 0.294499 -24.843994 -0.991605 -0.000449 -0.002983 0.007131 
34.132637 0.000000 -198.335266 166.218491 0.000000 0.000000 -5.971841 5.939583 -0.269001 2.103662 2.590871 0.675760 4.111362 5.166274 1.477484 3.993376 5.136641 1.552460 5.444532 -19.933674 -7.694584 -2.510105 9.588274 1.844078 2.128420 -0.394770 -12.535743 -8.444369 27.024599 -48.967628 -108.567635 -2.274807 -4.782184 0.063301 19.339027 -1.684423 6.221694 -0.393757 16.077303 9.210071 -2.778373 51.305923 102.482964 -6.736517 12.635515 8.396674 16.618532 -12.614305 11.421741 -52.128429 -5.952006 36.147034 73.440910 41.132305 4.389497 -6.031186 -1.891471 -0.000032 -0.002099 -0.003897 -12.873057 -0.419969 11.670326 -1.448142 34.569225 -11.737137 0.312239 -19.446972 -0.699837 -0.000442 -0.002906 0.007196 
36.306194 0.000000 -205.938934 166.570679 0.000000 0.000000 -5.038166 5.507090 0.397230 2.654211 2.335860 0.470217 5.162306 4.670015 1.068376 5.043806 4.657985 1.156511 4.224076 -18.935633 -8.690763 -4.878914 10.566875 3.631190 1.895575 -0.382792 -11.568368 -6.716892 30.664194 -47.586891 -110.562584 -2.272934 -5.003486 -0.395685 16.749451 -1.221554 5.584750 -0.255396 14.871961 10.242793 -0.343879 51.388401 105.987160 -7.144258 12.732086 9.538016 15.933770 -12.441109 14.244226 -52.348442 -10.309093 19.130466 64.652023 23.766136 3.827904 -5.513590 -2.408303 -0.000032 -0.002099 -0.003927 -13.008186 6.099488 8.843450 0.040177 30.590633 -9.710143 0.221029 -10.787850 -0.711459 -0.000438 -0.002858 0.007132 
